<svg id="calendar-alt" xmlns="http://www.w3.org/2000/svg" xmlns:xlink="http://www.w3.org/1999/xlink" width="30.839" height="30.839" viewBox="0 0 30.839 30.839">
  <defs>
    <clipPath id="clip-path">
      <rect id="Background" width="30.839" height="30.839" fill="#fff"/>
    </clipPath>
  </defs>
  <rect id="Background-2" data-name="Background" width="30.839" height="30.839" fill="none"/>
  <g id="calendar-alt-2" data-name="calendar-alt" clip-path="url(#clip-path)">
    <path id="Shape" d="M21.844,28.268H3.855A3.859,3.859,0,0,1,0,24.414V6.425A3.859,3.859,0,0,1,3.855,2.57H5.14V1.285a1.285,1.285,0,1,1,2.57,0V2.57H17.989V1.285a1.285,1.285,0,0,1,2.57,0V2.57h1.285A3.859,3.859,0,0,1,25.7,6.425V24.414A3.859,3.859,0,0,1,21.844,28.268ZM2.57,12.85V24.414A1.286,1.286,0,0,0,3.855,25.7H21.844a1.286,1.286,0,0,0,1.285-1.285V12.85ZM3.855,5.14A1.286,1.286,0,0,0,2.57,6.425V10.28H23.129V6.425A1.286,1.286,0,0,0,21.844,5.14H20.559V6.425a1.285,1.285,0,0,1-2.57,0V5.14H7.71V6.425a1.285,1.285,0,1,1-2.57,0V5.14ZM19.274,23.129a1.285,1.285,0,1,1,1.285-1.285A1.286,1.286,0,0,1,19.274,23.129Zm-6.424,0a1.285,1.285,0,1,1,1.285-1.285A1.286,1.286,0,0,1,12.85,23.129Zm-6.425,0A1.285,1.285,0,1,1,7.71,21.844,1.286,1.286,0,0,1,6.425,23.129Zm12.849-5.14A1.284,1.284,0,1,1,20.559,16.7,1.286,1.286,0,0,1,19.274,17.989Zm-6.424,0A1.284,1.284,0,1,1,14.135,16.7,1.286,1.286,0,0,1,12.85,17.989Zm-6.425,0A1.284,1.284,0,1,1,7.71,16.7,1.286,1.286,0,0,1,6.425,17.989Z" transform="translate(2.57 1.285)" fill="#fff"/>
  </g>
</svg>
