<svg xmlns="http://www.w3.org/2000/svg" width="30.445" height="21.555" viewBox="0 0 30.445 21.555">
  <g id="mail" transform="translate(0.25 -75.75)">
    <g id="Group_542" data-name="Group 542" transform="translate(0 76)">
      <path id="Path_265" data-name="Path 265" d="M27.313,76H2.632A2.636,2.636,0,0,0,0,78.632V94.423a2.636,2.636,0,0,0,2.632,2.632H27.313a2.635,2.635,0,0,0,2.632-2.632V78.632A2.634,2.634,0,0,0,27.313,76Zm-.369,1.755L16.833,87.812a2.632,2.632,0,0,1-3.724,0L3,77.755ZM1.755,94.066V78.99l7.582,7.542ZM3,95.3l7.579-7.531,1.29,1.283a4.386,4.386,0,0,0,6.2,0l1.292-1.285L26.943,95.3ZM28.19,94.066l-7.582-7.534L28.19,78.99Z" transform="translate(0 -76)" fill="#8d72e1" stroke="#8d72e1" stroke-width="0.5"/>
    </g>
  </g>
</svg>
