<svg id="invoice" xmlns="http://www.w3.org/2000/svg" xmlns:xlink="http://www.w3.org/1999/xlink" width="30.839" height="30.839" viewBox="0 0 30.839 30.839">
  <defs>
    <clipPath id="clip-path">
      <rect id="Background" width="30.839" height="30.839" fill="#fff"/>
    </clipPath>
  </defs>
  <rect id="Background-2" data-name="Background" width="30.839" height="30.839" fill="none"/>
  <g id="invoice-2" data-name="invoice" clip-path="url(#clip-path)">
    <path id="Shape" d="M21.844,25.7H3.855A3.859,3.859,0,0,1,0,21.849V1.29A1.285,1.285,0,0,1,1.927.172l3.855,2.21L9.637.172a1.285,1.285,0,0,1,1.285,0l3.855,2.21L18.632.172A1.284,1.284,0,0,1,20.559,1.29V12.854h3.855A1.286,1.286,0,0,1,25.7,14.139v7.71A3.859,3.859,0,0,1,21.844,25.7Zm-1.285-10.28v6.425a1.285,1.285,0,0,0,2.57,0V15.424ZM2.57,3.513V21.849a1.286,1.286,0,0,0,1.285,1.285H18.221a3.868,3.868,0,0,1-.232-1.285V3.513L15.42,4.979a1.392,1.392,0,0,1-1.285,0L10.28,2.767,6.425,4.979a1.392,1.392,0,0,1-1.285,0Zm11.565,17.05H6.425a1.285,1.285,0,1,1,0-2.57h7.71a1.285,1.285,0,0,1,0,2.57Zm0-5.14H6.425a1.285,1.285,0,1,1,0-2.57h7.71a1.285,1.285,0,0,1,0,2.57Zm-2.57-5.139H8.995a1.285,1.285,0,1,1,0-2.57h2.57a1.285,1.285,0,0,1,0,2.57Z" transform="translate(2.57 2.565)" fill="#fff"/>
  </g>
</svg>
