<svg xmlns="http://www.w3.org/2000/svg" width="28.485" height="28.487" viewBox="0 0 28.485 28.487">
  <path id="tag" d="M12.544,28.486h0a3.316,3.316,0,0,1-2.36-.98L1.307,18.619a3.344,3.344,0,0,1,0-4.717L13.271,1.915A6.483,6.483,0,0,1,17.89,0h7.59a3.342,3.342,0,0,1,3.338,3.338V10.9A6.483,6.483,0,0,1,26.9,15.522L14.9,27.51a3.317,3.317,0,0,1-2.359.976ZM17.89,2.225a4.272,4.272,0,0,0-3.044,1.262L2.882,15.474a1.115,1.115,0,0,0,0,1.572l8.875,8.888a1.1,1.1,0,0,0,.786.327h0a1.106,1.106,0,0,0,.786-.325l12-11.988A4.272,4.272,0,0,0,26.593,10.9V3.338A1.114,1.114,0,0,0,25.48,2.225Zm2.861,9.069a3.338,3.338,0,1,1,3.338-3.338A3.342,3.342,0,0,1,20.751,11.294Zm0-4.451a1.113,1.113,0,1,0,1.113,1.113A1.114,1.114,0,0,0,20.751,6.843Zm0,0" transform="translate(-0.334 0.001)" fill="#fff"/>
</svg>
