<svg xmlns="http://www.w3.org/2000/svg" xmlns:xlink="http://www.w3.org/1999/xlink" width="30.839" height="30.839" viewBox="0 0 30.839 30.839">
  <defs>
    <clipPath id="clip-path">
      <rect id="Background" width="30.839" height="30.839" fill="#34c38f"/>
    </clipPath>
  </defs>
  <g id="home-alt" clip-path="url(#clip-path)">
    <path id="Shape" d="M19.275,25.729H3.855A3.859,3.859,0,0,1,0,21.874V10.644a3.851,3.851,0,0,1,1.285-2.9L9,.982a3.855,3.855,0,0,1,5.14,0L21.844,7.74a3.852,3.852,0,0,1,1.285,2.89V21.874A3.859,3.859,0,0,1,19.275,25.729ZM10.28,12.88h2.57a3.859,3.859,0,0,1,3.855,3.855v6.424h2.57a1.286,1.286,0,0,0,1.285-1.285V10.631a1.29,1.29,0,0,0-.438-.963l-7.71-6.745a1.283,1.283,0,0,0-1.7,0L3.006,9.667a1.288,1.288,0,0,0-.436.963V21.874a1.286,1.286,0,0,0,1.285,1.285h2.57V16.735A3.859,3.859,0,0,1,10.28,12.88Zm0,2.57A1.286,1.286,0,0,0,9,16.735v6.424h5.14V16.735A1.286,1.286,0,0,0,12.85,15.45Z" transform="translate(3.855 2.539)" fill="#fff"/>
  </g>
</svg>
