<svg xmlns="http://www.w3.org/2000/svg" width="25.698" height="25.699" viewBox="0 0 25.698 25.699">
  <g id="comments-alt" transform="translate(-2.57 -2.57)">
    <g id="Group_541" data-name="Group 541">
      <path id="Shape" d="M24.446,25.7H24.4a1.288,1.288,0,0,1-.9-.372l-3.046-3.058H11.565A3.859,3.859,0,0,1,7.71,18.413V16.563h-1.9L2.2,20.186a1.277,1.277,0,0,1-.9.372H1.252a1.072,1.072,0,0,1-.456-.1A1.279,1.279,0,0,1,0,19.274V3.855A3.859,3.859,0,0,1,3.855,0H16.7a3.859,3.859,0,0,1,3.854,3.855V7.71h1.285A3.859,3.859,0,0,1,25.7,11.565V24.414a1.282,1.282,0,0,1-.8,1.182A1.057,1.057,0,0,1,24.446,25.7ZM11.565,10.28a1.286,1.286,0,0,0-1.285,1.285v6.8a1.286,1.286,0,0,0,1.285,1.285h9.367a1.29,1.29,0,0,1,.911.386l1.285,1.285V11.565a1.286,1.286,0,0,0-1.285-1.285ZM3.855,2.57A1.286,1.286,0,0,0,2.57,3.855V16.178l1.8-1.812a1.277,1.277,0,0,1,.9-.372H7.71V11.565A3.859,3.859,0,0,1,11.565,7.71h6.424V3.855A1.286,1.286,0,0,0,16.7,2.57Z" transform="translate(2.57 2.57)" fill="#8d72e1"/>
    </g>
  </g>
</svg>
