<svg xmlns="http://www.w3.org/2000/svg" width="21.745" height="27.115" viewBox="0 0 21.745 27.115">
  <path id="Shape" d="M10.873,27.115A5.448,5.448,0,0,1,5.627,23.1H1.359A1.361,1.361,0,0,1,0,21.745V19.027a4.084,4.084,0,0,1,2.718-3.832V10.873a8.135,8.135,0,0,1,6.8-8.033V1.359a1.359,1.359,0,0,1,2.718,0V2.84a8.135,8.135,0,0,1,6.795,8.033v4.322a4.084,4.084,0,0,1,2.718,3.832v2.718A1.361,1.361,0,0,1,20.386,23.1H16.119A5.448,5.448,0,0,1,10.873,27.115ZM8.535,23.1a2.69,2.69,0,0,0,4.676,0ZM4.077,17.668a1.361,1.361,0,0,0-1.359,1.359v1.359H19.027V19.027a1.361,1.361,0,0,0-1.359-1.359Zm6.8-12.232a5.443,5.443,0,0,0-5.437,5.437V14.95H16.309V10.873A5.443,5.443,0,0,0,10.873,5.436Z" fill="#8d72e1"/>
</svg>
