<svg id="chart" xmlns="http://www.w3.org/2000/svg" xmlns:xlink="http://www.w3.org/1999/xlink" width="30.839" height="30.839" viewBox="0 0 30.839 30.839">
  <defs>
    <clipPath id="clip-path">
      <rect id="Background" width="30.839" height="30.839" fill="#fff"/>
    </clipPath>
  </defs>
  <rect id="Background-2" data-name="Background" width="30.839" height="30.839" fill="none"/>
  <g id="chart-2" data-name="chart" clip-path="url(#clip-path)">
    <path id="Shape" d="M21.844,25.7H3.855A3.859,3.859,0,0,1,0,21.844V3.855A3.859,3.859,0,0,1,3.855,0H21.844A3.859,3.859,0,0,1,25.7,3.855V21.844A3.859,3.859,0,0,1,21.844,25.7ZM3.855,2.57A1.286,1.286,0,0,0,2.57,3.855V21.844a1.286,1.286,0,0,0,1.285,1.285H21.844a1.286,1.286,0,0,0,1.285-1.285V3.855A1.286,1.286,0,0,0,21.844,2.57ZM19.274,20.559a1.286,1.286,0,0,1-1.285-1.285V11.565a1.285,1.285,0,0,1,2.57,0v7.709A1.286,1.286,0,0,1,19.274,20.559Zm-6.424,0a1.286,1.286,0,0,1-1.285-1.285V6.425a1.285,1.285,0,1,1,2.57,0V19.274A1.286,1.286,0,0,1,12.85,20.559Zm-6.425,0A1.286,1.286,0,0,1,5.14,19.274V14.135a1.285,1.285,0,1,1,2.57,0v5.139A1.286,1.286,0,0,1,6.425,20.559Z" transform="translate(2.57 2.57)" fill="#fff"/>
  </g>
</svg>
