<svg xmlns="http://www.w3.org/2000/svg" width="14.488" height="14.488" viewBox="0 0 14.488 14.488">
  <path id="New_Screenshots" data-name="New Screenshots" d="M11.236,7.244a3.992,3.992,0,1,0-3.992,3.992A4,4,0,0,0,11.236,7.244ZM7.244,10.331a3.087,3.087,0,1,1,3.087-3.087A3.09,3.09,0,0,1,7.244,10.331ZM4.867,0a.453.453,0,0,1,0,.905H1.934A1.03,1.03,0,0,0,.905,1.934V4.867a.453.453,0,0,1-.905,0V1.934A1.937,1.937,0,0,1,1.934,0Zm9.621,9.621v2.933a1.937,1.937,0,0,1-1.934,1.934H9.621a.453.453,0,0,1,0-.905h2.933a1.03,1.03,0,0,0,1.029-1.029V9.621a.453.453,0,0,1,.905,0ZM0,9.621a.453.453,0,0,1,.905,0v2.933a1.03,1.03,0,0,0,1.029,1.029H4.867a.453.453,0,0,1,0,.905H1.934A1.937,1.937,0,0,1,0,12.553ZM14.488,1.934V4.867a.453.453,0,0,1-.905,0V1.934A1.03,1.03,0,0,0,12.553.905H9.621a.453.453,0,0,1,0-.905h2.933A1.937,1.937,0,0,1,14.488,1.934Z" fill="#2c74b3"/>
</svg>
