<svg xmlns="http://www.w3.org/2000/svg" width="27.181" height="27.181" viewBox="0 0 27.181 27.181">
  <path id="Shape" d="M15.649,27.181H11.566a1.36,1.36,0,0,1-1.292-.923l-.857-2.569L7,24.9a1.366,1.366,0,0,1-.6.14,1.35,1.35,0,0,1-.961-.4l-2.894-2.9A1.361,1.361,0,0,1,2.283,20.2l1.21-2.419L.925,16.921A1.361,1.361,0,0,1,0,15.629V11.552a1.359,1.359,0,0,1,.925-1.277l2.569-.857L2.283,7a1.359,1.359,0,0,1,.259-1.563L5.436,2.542a1.358,1.358,0,0,1,1.549-.259L9.4,3.493,10.261.925A1.358,1.358,0,0,1,11.548,0h4.081a1.359,1.359,0,0,1,1.277.925l.857,2.569,2.419-1.21a1.368,1.368,0,0,1,.6-.14,1.349,1.349,0,0,1,.962.4l2.9,2.894A1.36,1.36,0,0,1,24.9,6.985L23.689,9.4l2.569.857a1.354,1.354,0,0,1,.923,1.29v4.078a1.359,1.359,0,0,1-.923,1.277l-2.569.857L24.9,20.182a1.358,1.358,0,0,1-.258,1.563l-2.9,2.9a1.359,1.359,0,0,1-1.536.258L17.79,23.689l-.855,2.569A1.356,1.356,0,0,1,15.649,27.181ZM9.4,20.953a2.719,2.719,0,0,1,2.585,1.879l.544,1.631h2.16l.544-1.631a2.716,2.716,0,0,1,3.791-1.576l1.509.815,1.494-1.5-.774-1.549a2.718,2.718,0,0,1,1.576-3.832l1.631-.543V12.49l-1.631-.543a2.718,2.718,0,0,1-1.576-3.792l.815-1.508-1.5-1.5-1.549.775a2.718,2.718,0,0,1-3.832-1.577l-.543-1.631h-2.12l-.544,1.631A2.718,2.718,0,0,1,8.154,5.926L6.646,5.151l-1.5,1.5.775,1.508a2.717,2.717,0,0,1-1.577,3.832l-1.631.544v2.12l1.631.543a2.718,2.718,0,0,1,1.577,3.832l-.815,1.509L6.605,22.03l1.549-.774A2.729,2.729,0,0,1,9.4,20.953Zm4.189-1.926a5.436,5.436,0,1,1,5.436-5.436A5.442,5.442,0,0,1,13.59,19.027Zm0-8.154a2.718,2.718,0,1,0,2.718,2.718A2.721,2.721,0,0,0,13.59,10.872Z" fill="#fff"/>
</svg>
