<svg id="user-circle" xmlns="http://www.w3.org/2000/svg" xmlns:xlink="http://www.w3.org/1999/xlink" width="30.839" height="30.839" viewBox="0 0 30.839 30.839">
  <defs>
    <clipPath id="clip-path">
      <rect id="Background" width="30.839" height="30.839" fill="#fff"/>
    </clipPath>
  </defs>
  <rect id="Background-2" data-name="Background" width="30.839" height="30.839" fill="none"/>
  <g id="user-circle-2" data-name="user-circle" clip-path="url(#clip-path)">
    <path id="Shape" d="M12.825,25.672a12.816,12.816,0,1,1,9.443-4.137A12.886,12.886,0,0,1,12.825,25.672Zm0-10.215a7.683,7.683,0,0,0-7.132,4.781,10.243,10.243,0,0,0,14.263,0A7.682,7.682,0,0,0,12.825,15.457Zm0-10.35a5.139,5.139,0,0,1,3.854,8.54A10.336,10.336,0,0,1,21.7,17.989a10.176,10.176,0,0,0,1.4-5.139,10.279,10.279,0,1,0-20.559,0,10.176,10.176,0,0,0,1.4,5.139A10.336,10.336,0,0,1,8.97,13.647a5.139,5.139,0,0,1,3.855-8.54Zm0,2.6a2.57,2.57,0,1,0,2.569,2.57A2.573,2.573,0,0,0,12.825,7.71Z" transform="translate(2.595 2.57)" fill="#fff"/>
  </g>
</svg>
