<svg xmlns="http://www.w3.org/2000/svg" width="12.851" height="12.922" viewBox="0 0 12.851 12.922">
  <g id="Group_442" data-name="Group 442" transform="translate(-1.333 -1.288)">
    <path id="Shape" d="M.65,12.922a.669.669,0,0,1-.071,0A.651.651,0,0,1,0,12.2,6.446,6.446,0,0,1,4.02,6.919a3.874,3.874,0,1,1,4.791,0,6.443,6.443,0,0,1,4.036,5.288.648.648,0,0,1-.569.71h-.071a.648.648,0,0,1-.646-.574,5.166,5.166,0,0,0-10.267,0A.648.648,0,0,1,.65,12.922ZM6.416,1.295A2.583,2.583,0,1,0,9,3.878,2.586,2.586,0,0,0,6.416,1.295Z" transform="translate(1.333 1.288)" fill="#2c74b3"/>
  </g>
</svg>
